# xmcd
#
# Track frame offsets: 
#        150
#        9633
#        17028
#        26292
#        34766
#        55605
#        68767
#        88721
#        107451
#        126042
#        143968
#        160253
#        171071
#        208392
#        231513
#        244944
#        256841
#        267806
#        276675
#        293207
#
# Disc length: 4126 seconds
#
# Revision: 0
# Processed by: cddbd v1.5.2PL0 Copyright (c) Steve Scherf et al.
# Submitted via: ExactAudioCopy v1.0b3
#
DISCID=1f101c14
DTITLE=Various Artist - Blues From Maxwell Street 1960 and 1965
DYEAR=2012
DGENRE=Blues
TTITLE0=Daddy Stovepipe (Johnny Watson) - South Of The Border
TTITLE1=Daddy Stovepipe (Johnny Watson) - Tennessee Waltz
TTITLE2=Daddy Stovepipe (Johnny Watson) - Old Time Religion
TTITLE3=Daddy Stovepipe (Johnny Watson) - The Monkey and The Baboon
TTITLE4=James Brewer - I'm So Glad Good Whiskey's Back
TTITLE5=King David - Fannie Mae
TTITLE6=King David - Sugar Mama
TTITLE7=King David - Good Mornin', Little Schoolgirl
TTITLE8=King David - Pistol
TTITLE9=King David - 44 Blues
TTITLE10=Blind Arvella Gray - Corinne, Corrina
TTITLE11=Blind Arvella Gray - Have Mercy, Mr. Percy
TTITLE12=Blind Arvella Gray - Railroad Work Songs and John Henry
TTITLE13=Blind Arvella Gray - Have Mercy, Mr. Percy No. 2
TTITLE14=Blind Arvella Gray - Freedom Riders
TTITLE15=Blind Arvella Gray - Freedom Bus
TTITLE16=Blind Arvella Gray - You Are My Dear
TTITLE17=Blind Arvella Gray - Deborah
TTITLE18=Blind Arvella Gray - John Henry
TTITLE19=Blind Arvella Gray - The Walking Blues
EXTD=
EXTT0=
EXTT1=
EXTT2=
EXTT3=
EXTT4=
EXTT5=
EXTT6=
EXTT7=
EXTT8=
EXTT9=
EXTT10=
EXTT11=
EXTT12=
EXTT13=
EXTT14=
EXTT15=
EXTT16=
EXTT17=
EXTT18=
EXTT19=
PLAYORDER=
